<svg xmlns="http://www.w3.org/2000/svg" width="1160" height="456" viewBox="0 0 1160 456">
<style>text{font-family:Arial,sans-serif;font-size:12px;fill:#17202a}.title{font-size:18px;font-weight:700}.muted{fill:#5d6d7e}.query{font-weight:700}.axis{stroke:#566573;stroke-width:1}</style>
<text x="18" y="30" class="title">unterhalt-alimente: Top 5 und Flop 5 nach normalisierter CTR</text>
<line x1="575" y1="48" x2="575" y2="430" class="axis"/>
<text x="483" y="54" class="muted">unter Erwartung</text>
<text x="589" y="54" class="muted">über Erwartung</text>
<text x="18" y="84" class="query">unterhalt tricks für männer österreich</text>
<rect x="575.0" y="68" width="289.1" height="22" rx="2" fill="#2ca02c" fill-opacity="0.82"/>
<text x="924" y="84" class="muted">Pos 3,56 | Index 159 | 3.743 Impr. | 5,93% CTR</text>
<text x="18" y="118" class="query">wie lange muss man alimente zahlen in österreich</text>
<rect x="575.0" y="102" width="43.2" height="22" rx="2" fill="#2ca02c" fill-opacity="0.82"/>
<text x="924" y="118" class="muted">Pos 3,10 | Index 286 | 339 Impr. | 5,60% CTR</text>
<text x="18" y="152" class="query">unterhaltspflicht eltern gegenüber volljährig...</text>
<rect x="575.0" y="136" width="43.1" height="22" rx="2" fill="#2ca02c" fill-opacity="0.82"/>
<text x="924" y="152" class="muted">Pos 2,69 | Index 216 | 544 Impr. | 4,23% CTR</text>
<text x="18" y="186" class="query">alimente wie lange</text>
<rect x="575.0" y="170" width="38.5" height="22" rx="2" fill="#2ca02c" fill-opacity="0.82"/>
<text x="924" y="186" class="muted">Pos 7,83 | Index 651 | 559 Impr. | 2,33% CTR</text>
<text x="18" y="220" class="query">selbsterhaltungsfähigkeit 2026 österreich</text>
<rect x="575.0" y="204" width="35.3" height="22" rx="2" fill="#2ca02c" fill-opacity="0.82"/>
<text x="924" y="220" class="muted">Pos 1,46 | Index 1217 | 104 Impr. | 10,58% CTR</text>
<text x="18" y="254" class="query">alimente</text>
<rect x="215.0" y="238" width="360.0" height="22" rx="2" fill="#d62728" fill-opacity="0.82"/>
<text x="924" y="254" class="muted">Pos 7,34 | Index 12 | 9.848 Impr. | 0,14% CTR</text>
<text x="18" y="288" class="query">alimente rechner</text>
<rect x="314.9" y="272" width="260.1" height="22" rx="2" fill="#d62728" fill-opacity="0.82"/>
<text x="924" y="288" class="muted">Pos 6,97 | Index 1 | 6.347 Impr. | 0,02% CTR</text>
<text x="18" y="322" class="query">alimente berechnung tabelle österreich</text>
<rect x="501.0" y="306" width="74.0" height="22" rx="2" fill="#d62728" fill-opacity="0.82"/>
<text x="924" y="322" class="muted">Pos 4,89 | Index 9 | 570 Impr. | 0,35% CTR</text>
<text x="18" y="356" class="query">alimente berechnung tabelle</text>
<rect x="529.9" y="340" width="45.1" height="22" rx="2" fill="#d62728" fill-opacity="0.82"/>
<text x="924" y="356" class="muted">Pos 1,97 | Index 41 | 1.294 Impr. | 0,70% CTR</text>
<text x="18" y="390" class="query">existenzminimum österreich 2026</text>
<rect x="532.8" y="374" width="42.2" height="22" rx="2" fill="#d62728" fill-opacity="0.82"/>
<text x="924" y="390" class="muted">Pos 12,95 | Index 8 | 4.624 Impr. | 0,02% CTR</text>
</svg>